# xmcd CD database file
#
# Track frame offsets:
#	150
#	9225
#	59882
#	93227
#	116622
#	138500
#	157927
#	182910
#	204467
#	225532
#	255497
#	275995
#	278587
#
# Disc length: 4066 seconds
#
# Revision: 0
# Processed by: cddbd v1.5.2PL0 Copyright (c) Steve Scherf et al.
# Submitted via: CDex 1.51
#
DISCID=b50fe00d
DTITLE=ICP Orchestra - Bospaadje Konijnehol I
DYEAR=1990
DGENRE=Jazz
TTITLE0=Bospaadje Konijnehol 1
TTITLE1=Mooche Mix -- Ellington Mix
TTITLE2=Moodmixes Indigo -- Ellington Mix
TTITLE3=Mixed Caravan -- Ellington Mix
TTITLE4=Happy Go Lucky Local Mix -- Ellington Mix
TTITLE5=Mix Solitude -- Ellington Mix
TTITLE6=It Don't Mix -- Ellington Mix
TTITLE7=Zitten en Liggen -- De Purperen Sofa
TTITLE8=De Poezenkant -- De Purperen Sofa
TTITLE9=Het Kraken -- De Purperen Sofa
TTITLE10=Vondsten in het Binnenwerk -- De Purperen Sofa
TTITLE11=Een Gewelfde Rugleuning -- De Purperen Sofa
TTITLE12=Kale Plekken -- De Purperen Sofa
EXTD=YEAR: 1990
EXTT0=
EXTT1=
EXTT2=
EXTT3=
EXTT4=
EXTT5=
EXTT6=
EXTT7=
EXTT8=
EXTT9=
EXTT10=
EXTT11=
EXTT12=
PLAYORDER=
